<svg xmlns="http://www.w3.org/2000/svg" version="1.1" xmlns:xlink="http://www.w3.org/1999/xlink" xmlns:svgjs="http://svgjs.dev/svgjs" width="1500" height="189" viewBox="0 0 1500 189"><g transform="matrix(1,0,0,1,-0.9090909090909918,-0.4188834929136789)"><svg viewBox="0 0 396 50" data-background-color="#ffffff" preserveAspectRatio="xMidYMid meet" height="189" width="1500" xmlns="http://www.w3.org/2000/svg" xmlns:xlink="http://www.w3.org/1999/xlink"><g id="tight-bounds" transform="matrix(1,0,0,1,0.2400000000000091,0.11081573886605156)"><svg viewBox="0 0 395.52 49.77836852226789" height="49.77836852226789" width="395.52"><g><svg viewBox="0 0 488.52849946501357 61.483999999999995" height="49.77836852226789" width="395.52"><g><svg viewBox="0 0 488.52849946501357 61.483999999999995" height="61.483999999999995" width="488.52849946501357"><g id="textblocktransform"><svg viewBox="0 0 488.52849946501357 61.483999999999995" height="61.483999999999995" width="488.52849946501357" id="textblock"><g><svg viewBox="0 0 488.52849946501357 61.483999999999995" height="61.483999999999995" width="488.52849946501357"><g><svg><g></g><g></g></svg></g><g><svg><g></g><g><svg></svg></g></svg></g><g id="text-0"><svg viewBox="0 0 488.52849946501357 61.483999999999995" height="61.483999999999995" width="488.52849946501357"><g transform="matrix(1,0,0,1,0,11.741999999999997)"><svg width="167.85000000000002" viewBox="2.05 -37.5 167.83999999999997 38" height="38" data-palette-color="#e2dd3c"><path d="M20-34.55L20-34.55Q12.25-34.55 12.25-19.6L12.25-19.6 12.25-15.65Q12.25-8.55 14.3-4.53 16.35-0.5 20.35-0.5L20.35-0.5Q25.85-0.5 30.45-11.2L30.45-11.2 31.35-11.2 31-0.05 30.45-0.05Q30.15-0.6 29.9-0.83 29.65-1.05 29.18-1.05 28.7-1.05 25.55-0.28 22.4 0.5 19.15 0.5L19.15 0.5Q11 0.5 6.53-3.9 2.05-8.3 2.05-17.13 2.05-25.95 6.73-30.75 11.4-35.55 19.3-35.55L19.3-35.55Q22.35-35.55 25.28-34.77 28.2-34 28.7-34 29.2-34 29.45-34.23 29.7-34.45 30-35L30-35 30.55-35 30.95-24.15 30.05-24.15Q27.8-29.2 25.43-31.88 23.05-34.55 20-34.55ZM34.8-36.6L34.8-37.5 47.05-37.5 47.05-0.9 49.85-0.9 49.85 0 35 0 35-0.9 37.75-0.9 37.75-36.6 34.8-36.6ZM58.15-27.25Q55.5-27.25 54.37-28.6 53.25-29.95 53.25-31.95 53.25-33.95 54.47-35.25 55.7-36.55 58.2-36.55 60.7-36.55 62-35.38 63.3-34.2 63.3-32.02 63.3-29.85 62.05-28.55 60.8-27.25 58.15-27.25ZM50.59-22.9L50.59-23.8 62.84-23.8 62.84-0.9 65.65-0.9 65.65 0 50.8 0 50.8-0.9 53.55-0.9 53.55-22.9 50.59-22.9ZM80.64-23.4L80.64-23.4Q78.44-23.4 77.49-21 76.54-18.6 76.54-13.05L76.54-13.05 76.54-10.45Q76.54-5.5 77.64-3.35 78.74-1.2 81.69-1.2 84.64-1.2 86.39-3.2 88.14-5.2 88.64-7.75L88.64-7.75 89.54-7.65Q88.59-3.35 86.04-1.45L86.04-1.45Q83.44 0.5 78.89 0.5L78.89 0.5Q73.09 0.5 69.99-2.63 66.89-5.75 66.89-11.78 66.89-17.8 70.42-21.05 73.94-24.3 80.24-24.3L80.24-24.3Q84.69-24.3 87.04-22.58 89.39-20.85 89.39-18.25 89.39-15.65 88.27-14.45 87.14-13.25 85.17-13.25 83.19-13.25 81.99-14.3 80.79-15.35 80.79-17.4L80.79-17.4Q80.79-18.3 81.04-19.2L81.04-19.2 82.69-19.2Q83.04-20.2 83.04-21L83.04-21Q83.04-23.4 80.64-23.4ZM120.54 0L106.64 0 106.64-0.9 108.94-0.9 103.29-12.5 102.34-12.25 102.34-0.9 104.64-0.9 104.64 0 90.29 0 90.29-0.9 93.04-0.9 93.04-36.6 90.09-36.6 90.09-37.5 102.34-37.5 102.34-13.25 103.14-13.55 114.39-22.9 109.69-22.9 109.69-23.8 119.54-23.8 119.54-22.9 116.04-22.9 110.09-17.85 118.74-0.9 120.54-0.9 120.54 0ZM133.19 0.5Q126.74 0.5 123.51-2.83 120.29-6.15 120.29-12.08 120.29-18 123.91-21.15 127.54-24.3 133.14-24.3L133.14-24.3Q144.49-24.3 144.04-12.9L144.04-12.9 129.94-12.9 129.94-10.95Q129.94-6.05 131.19-3.55 132.44-1.05 135.54-1.05L135.54-1.05Q141.34-1.05 143.14-7.25L143.14-7.25 144.04-7.1Q143.09-3.5 140.61-1.5 138.14 0.5 133.19 0.5L133.19 0.5ZM129.99-16.35L129.99-13.9 135.14-13.9 135.14-16.35Q135.14-20.4 134.66-21.88 134.19-23.35 132.76-23.35 131.34-23.35 130.66-21.78 129.99-20.2 129.99-16.35L129.99-16.35ZM162.54-22.4L162.54-22.4Q160.69-22.4 159.29-20 157.89-17.6 157.89-14.3L157.89-14.3 157.89-0.9 161.44-0.9 161.44 0 145.84 0 145.84-0.9 148.59-0.9 148.59-22.9 145.84-22.9 145.84-23.8 157.89-23.8 157.89-19Q158.54-21.55 160.39-22.93 162.24-24.3 164.59-24.3 166.94-24.3 168.41-22.98 169.89-21.65 169.89-19.23 169.89-16.8 168.79-15.5 167.69-14.2 165.41-14.2 163.14-14.2 162.06-15.7 160.99-17.2 161.79-19.85L161.79-19.85 163.59-19.85Q164.84-22.4 162.54-22.4Z" opacity="1" transform="matrix(1,0,0,1,0,0)" fill="#e2dd3c" class="undefined-tk-0"></path></svg></g><g><svg xmlns="http://www.w3.org/2000/svg" xmlns:xlink="http://www.w3.org/1999/xlink" version="1.1" x="182.366" y="0" viewBox="9.223999516441767 9.579999516558486 81.62200048355824 82.54500048344151" enable-background="new 0 0 100 100" xml:space="preserve" height="61.483999999999995" width="60.79649946501353" class="icon-dxe-0" data-fill-palette-color="accent" id="dxe-0"><polygon points="42.87,41.779 54.124,77.909 63.6,70.212 90.846,92.125 70.115,63.177 78.999,54.811 " fill="#22f4f6" data-fill-palette-color="accent"></polygon><path d="M48.2 24.387A4.146 4.146 0 1 1 39.908 24.387V13.727A4.145 4.145 0 0 1 44.053 9.58 4.145 4.145 0 0 1 48.2 13.727z" fill="#22f4f6" data-fill-palette-color="accent"></path><path d="M31.997 27.81A4.143 4.143 0 0 1 31.997 33.672 4.143 4.143 0 0 1 26.135 33.672L18.596 26.133A4.147 4.147 0 0 1 24.46 20.271z" fill="#22f4f6" data-fill-palette-color="accent"></path><path d="M54.615 26.248A4.144 4.144 0 0 0 54.615 32.111 4.15 4.15 0 0 0 60.48 32.111L68.013 24.571A4.14 4.14 0 0 0 68.013 18.709 4.137 4.137 0 0 0 62.156 18.709z" fill="#22f4f6" data-fill-palette-color="accent"></path><path d="M24.03 40.692A4.15 4.15 0 0 1 28.177 44.839 4.144 4.144 0 0 1 24.031 48.986L13.37 48.982A4.144 4.144 0 0 1 9.224 44.837 4.144 4.144 0 0 1 13.37 40.691z" fill="#22f4f6" data-fill-palette-color="accent"></path><path d="M29.015 55.117A4.14 4.14 0 0 1 34.876 55.121 4.136 4.136 0 0 1 34.877 60.981L27.339 68.522A4.15 4.15 0 0 1 21.477 68.522 4.15 4.15 0 0 1 21.477 62.657z" fill="#22f4f6" data-fill-palette-color="accent"></path></svg></g><g transform="matrix(1,0,0,1,257.67849946501354,11.741999999999997)"><svg width="230.85" viewBox="2.55 -37.5 230.82999999999998 38" height="38" data-palette-color="#e2dd3c"><path d="M16.25-0.55L16.25-0.55Q18.75-0.55 20.68-1.9 22.6-3.25 22.6-5.98 22.6-8.7 20.53-10.15 18.45-11.6 14.63-12.68 10.8-13.75 9.08-14.55 7.35-15.35 5.8-16.65L5.8-16.65Q2.7-19.25 2.7-24.7L2.7-24.7Q2.7-29.15 5.88-32.35 9.05-35.55 14.55-35.55L14.55-35.55Q17.2-35.55 20.08-34.77 22.95-34 23.65-34 24.35-34 24.9-35L24.9-35 25.45-35 25.8-24.9 25-24.9Q22.6-29.25 19.98-31.88 17.35-34.5 14.28-34.5 11.2-34.5 9.5-33.08 7.8-31.65 7.8-29.28 7.8-26.9 9.83-25.63 11.85-24.35 14.8-23.55 17.75-22.75 18.68-22.45 19.6-22.15 20.98-21.63 22.35-21.1 23.23-20.53 24.1-19.95 25.08-19.07 26.05-18.2 26.6-17.15L26.6-17.15Q27.95-14.75 27.95-11.45L27.95-11.45Q27.95-6.05 24.58-2.78 21.2 0.5 15.7 0.5L15.7 0.5Q12.85 0.5 9.18-0.25 5.5-1 5.1-1L5.1-1Q4.4-1 3.75 0.5L3.75 0.5 3.05 0.5 2.55-11.4 3.4-11.4Q5.6-7.05 9.03-3.8 12.45-0.55 16.25-0.55ZM37.85-27.25Q35.2-27.25 34.07-28.6 32.95-29.95 32.95-31.95 32.95-33.95 34.17-35.25 35.4-36.55 37.9-36.55 40.4-36.55 41.7-35.38 43-34.2 43-32.02 43-29.85 41.75-28.55 40.5-27.25 37.85-27.25ZM30.3-22.9L30.3-23.8 42.55-23.8 42.55-0.9 45.35-0.9 45.35 0 30.5 0 30.5-0.9 33.25-0.9 33.25-22.9 30.3-22.9ZM46.34-22.9L46.34-23.8 58.39-23.8 58.39-19.2Q60.05-24.3 65.67-24.3 71.3-24.3 72.5-18.9L72.5-18.9Q74.25-24.3 79.84-24.3L79.84-24.3Q87.19-24.3 87.19-15.95L87.19-15.95 87.19-0.9 90-0.9 90 0 76.14 0 76.14-0.9 77.9-0.9 77.9-17.15Q77.9-20.95 77.25-21.6L77.25-21.6Q76.94-21.9 76.44-21.9L76.44-21.9Q75-21.9 73.89-19.95 72.8-18 72.8-15L72.8-15 72.8-0.9 74.59-0.9 74.59 0 61.74 0 61.74-0.9 63.5-0.9 63.5-17.15Q63.5-20.95 62.84-21.6L62.84-21.6Q62.55-21.9 62.05-21.9L62.05-21.9Q60.64-21.9 59.52-19.78 58.39-17.65 58.39-14.7L58.39-14.7 58.39-0.9 60.2-0.9 60.2 0 46.34 0 46.34-0.9 49.09-0.9 49.09-22.9 46.34-22.9ZM118.99-0.9L118.99 0 107.59 0 107.04-3.65Q106.24-1.65 104.67-0.58 103.09 0.5 99.99 0.5L99.99 0.5Q92.24 0.5 92.24-7.85L92.24-7.85 92.24-22.9 89.44-22.9 89.44-23.8 101.54-23.8 101.54-6.65Q101.54-3.65 101.97-2.7 102.39-1.75 103.67-1.75 104.94-1.75 105.94-3.3 106.94-4.85 106.94-7.6L106.94-7.6 106.94-22.9 104.64-22.9 104.64-23.8 116.24-23.8 116.24-0.9 118.99-0.9ZM119.79-36.6L119.79-37.5 132.04-37.5 132.04-0.9 134.84-0.9 134.84 0 119.99 0 119.99-0.9 122.74-0.9 122.74-36.6 119.79-36.6ZM147.79-11.75L147.79-11.75 149.24-11.75 149.24-15.6Q149.24-20.35 148.71-21.98 148.19-23.6 146.69-23.6L146.69-23.6Q145.79-23.6 145.06-23.13 144.34-22.65 144.34-21.83 144.34-21 144.64-20.15L144.64-20.15 145.89-20.15Q146.29-19.1 146.29-17.63 146.29-16.15 145.04-15.08 143.79-14 141.89-14L141.89-14Q137.59-14 137.59-18.15L137.59-18.15Q137.59-24.3 148.04-24.3L148.04-24.3Q153.99-24.3 156.26-22.28 158.54-20.25 158.54-14.85L158.54-14.85 158.54-4.7Q158.54-2.1 159.99-2.1L159.99-2.1Q161.69-2.1 161.99-7.25L161.99-7.25 162.74-7.2Q162.54-2.8 161.09-1.15 159.64 0.5 156.34 0.5L156.34 0.5Q150.34 0.5 149.44-3.2L149.44-3.2Q148.79-1.3 147.49-0.4 146.19 0.5 143.69 0.5L143.69 0.5Q136.29 0.5 136.29-5.55L136.29-5.55Q136.29-9.1 139.11-10.43 141.94-11.75 147.79-11.75ZM145.79-5.6Q145.79-3 146.06-2.25 146.34-1.5 147.11-1.5 147.89-1.5 148.56-2.78 149.24-4.05 149.24-6.3L149.24-6.3 149.24-10.95 148.89-10.95Q145.79-10.95 145.79-6.4L145.79-6.4 145.79-5.6ZM164.99-7.15L164.99-7.15 164.99-22.9 162.24-22.9 162.24-23.8 164.99-23.8 164.99-30.25 174.29-32.55 174.29-23.8 180.79-23.8 180.79-22.9 174.29-22.9 174.29-6.05Q174.29-3.7 174.76-2.6 175.24-1.5 176.74-1.5 178.24-1.5 179.36-3 180.49-4.5 180.84-7.1L180.84-7.1 181.69-7Q181.29-3.55 179.49-1.53 177.69 0.5 173.54 0.5 169.39 0.5 167.19-1.15 164.99-2.8 164.99-7.15ZM198.33-9.85L198.33-9.85 198.33-14.1Q198.33-18.95 197.81-21.18 197.28-23.4 195.38-23.4L195.38-23.4Q194.28-23.4 193.61-22.78 192.93-22.15 192.63-20.7L192.63-20.7Q192.18-18.45 192.18-13.85L192.18-13.85 192.18-9.95Q192.18-4.5 192.51-3.4 192.83-2.3 193.18-1.6L193.18-1.6Q193.73-0.4 195.33-0.4L195.33-0.4Q197.28-0.4 197.88-2.65L197.88-2.65Q198.33-4.25 198.33-9.85ZM195.23 0.5Q188.98 0.5 185.78-2.7 182.58-5.9 182.58-11.88 182.58-17.85 186.01-21.08 189.43-24.3 195.63-24.3 201.83-24.3 204.88-21.33 207.93-18.35 207.93-12.25L207.93-12.25Q207.93 0.5 195.23 0.5L195.23 0.5ZM226.03-22.4L226.03-22.4Q224.18-22.4 222.78-20 221.38-17.6 221.38-14.3L221.38-14.3 221.38-0.9 224.93-0.9 224.93 0 209.33 0 209.33-0.9 212.08-0.9 212.08-22.9 209.33-22.9 209.33-23.8 221.38-23.8 221.38-19Q222.03-21.55 223.88-22.93 225.73-24.3 228.08-24.3 230.43-24.3 231.91-22.98 233.38-21.65 233.38-19.23 233.38-16.8 232.28-15.5 231.18-14.2 228.91-14.2 226.63-14.2 225.56-15.7 224.48-17.2 225.28-19.85L225.28-19.85 227.08-19.85Q228.33-22.4 226.03-22.4Z" opacity="1" transform="matrix(1,0,0,1,0,0)" fill="#e2dd3c" class="undefined-tk-1"></path></svg></g></svg></g></svg></g></svg></g></svg></g></svg></g><defs></defs></svg><rect width="395.52" height="49.77836852226789" fill="none" stroke="none" visibility="hidden"></rect></g></svg></g></svg>